<svg width="24" height="24" viewBox="0 0 24 24" fill="none" xmlns="http://www.w3.org/2000/svg">
<path d="M7.96102 4.8L3.98102 7.2V2.4L7.96102 0V4.8Z" fill="#624DE3"/>
<path d="M15.922 9.5999V4.7999L19.903 2.3999V7.1999L15.922 9.5999Z" fill="#AB9FF4"/>
<path d="M7.961 4.8V0L11.942 2.4V7.2L7.961 4.8Z" fill="#AB9FF4"/>
<path d="M19.903 2.4L15.922 4.8L11.942 2.4L15.922 0L19.903 2.4Z" fill="#624DE3"/>
<path d="M15.922 24V19.2001L11.942 16.8V21.6L15.922 24Z" fill="#AB9FF4"/>
<path d="M3.981 16.8001V12.0001L0 9.6001V14.4001L3.981 16.8001Z" fill="#624DE3"/>
<path d="M15.922 24V19.2001L19.903 16.8V21.6L15.922 24Z" fill="#624DE3"/>
<path d="M7.961 9.59995L3.981 12L0 9.59995L3.981 7.19995L7.961 9.59995Z" fill="#AB9FF4"/>
<path d="M11.942 21.6L7.96102 24L3.98102 21.6L7.96102 19.2L11.942 21.6Z" fill="#624DE3"/>
<path d="M23.883 14.4L19.903 16.8L15.922 14.4L19.903 12L23.883 14.4Z" fill="#AB9FF4"/>
<path d="M7.96102 19.1999L3.98102 21.5999V16.7999L7.96102 14.3999V19.1999Z" fill="#AB9FF4"/>
<path d="M15.922 14.4L11.942 16.8L7.961 14.4L11.942 12L15.922 14.4Z" fill="#624DE3"/>
<path d="M19.903 12V7.19995L23.883 9.59995V14.4L19.903 12Z" fill="#624DE3"/>
<path d="M11.942 12L7.961 14.4V9.59995L11.942 7.19995V12Z" fill="#8D7CF6"/>
<path d="M11.942 12V7.19995L15.922 9.59995V14.4L11.942 12Z" fill="#AB9FF4"/>
</svg>
